<?xml version="1.0" encoding="utf-8"?>
<!-- Generator: Adobe Illustrator 24.2.1, SVG Export Plug-In . SVG Version: 6.00 Build 0)  -->
<svg version="1.1" xmlns="http://www.w3.org/2000/svg" xmlns:xlink="http://www.w3.org/1999/xlink" x="0px" y="0px"
	 viewBox="0 0 241.69 56.15" style="enable-background:new 0 0 241.69 56.15;" xml:space="preserve">
<style type="text/css">
	.st0{display:none;}
	.st1{display:inline;fill:#FFFFFF;}
	.st2{fill:#ED1C24;}
</style>
<g id="Clear_space" class="st0">
	<rect x="-46.69" y="-46.86" class="st1" width="570" height="200"/>
</g>
<g id="Wordmark">
	<g>
		<path d="M18.08,14.06c-8.56,0-14.77,6.24-14.77,14.83s6.45,14.83,15.33,14.83c3.18,0,8.78-0.94,12.13-4.59
			c0.63-0.69,0.59-1.76-0.07-2.42l-1.59-1.59c-0.73-0.73-1.88-0.78-2.69-0.14c-2.66,2.09-4.99,2.63-7.11,2.63
			c-3.69,0-7.62-2.11-8.2-6.81l19.39,0c1.08,0,1.98-0.85,2.02-1.92c0.16-4.18-1.36-8.17-4.11-10.86
			C25.85,15.47,22.19,14.06,18.08,14.06z M17.97,20c2.03,0,3.73,0.68,4.92,1.98c0.94,0.94,1.57,2.22,1.87,3.78H11.17
			C11.8,22.19,14.38,20,17.97,20z"/>
		<path d="M52.09,14.06c-2.97,0-5.57,0.94-7.56,2.72V4.91c0-1.12-1.03-1.95-2.12-1.73l-4.09,0.84C37.38,4.22,36.71,5.04,36.71,6
			v34.98c0,1.11,0.9,2.02,2.02,2.02h3.79c1.11,0,2.02-0.9,2.02-2.02V26.73c0-3.5,2.33-5.84,5.79-5.84c3.38,0,5.57,2.29,5.57,5.84
			v14.25c0,1.11,0.9,2.02,2.02,2.02h3.84c1.11,0,2.02-0.9,2.02-2.02V26.17C63.76,18.93,59.07,14.06,52.09,14.06z"/>
		<path d="M138.95,14.06c-3.61,0-6.57,1.35-8.62,3.92v-1.46c0-1.11-0.9-2.02-2.02-2.02h-2.79c-1.11,0-2.02,0.9-2.02,2.02v24.46
			c0,1.11,0.9,2.02,2.02,2.02h3.84c1.11,0,2.02-0.9,2.02-2.02V26.73c0-3.5,2.33-5.84,5.79-5.84c3.38,0,5.57,2.29,5.57,5.84v14.25
			c0,1.11,0.9,2.02,2.02,2.02h3.84c1.11,0,2.02-0.9,2.02-2.02V26.17C150.62,18.93,145.93,14.06,138.95,14.06z"/>
		<path d="M179.22,14.5c-1.11,0-2.02,0.9-2.02,2.02v0.67c-2.41-2.05-5.43-3.13-8.78-3.13c-7.76,0-13.61,5.73-13.61,13.33
			c0,7.57,5.83,13.28,13.55,13.28c3,0,5.79-0.9,8.12-2.62v2.81c0,4.88-3.96,6.62-7.67,6.62c-4.13,0-7.24-2.24-8.93-3.85
			c-0.84-0.8-2.17-0.75-2.92,0.13l-1.41,1.63c-0.66,0.77-0.65,1.9,0.02,2.66c1.8,2.02,5.93,5.47,13.18,5.47
			c9.28,0,15.05-5.3,15.05-13.83V16.52c0-1.11-0.9-2.02-2.02-2.02H179.22z M169.81,34.51c-4.22,0-7.17-2.93-7.17-7.12
			c0-4.22,2.93-7.17,7.12-7.17c4.22,0,7.17,2.95,7.17,7.17C176.93,31.58,174,34.51,169.81,34.51z"/>
		<path d="M203.56,14.06c-2.84,0-5.31,1.29-7.17,3.73v-1.27c0-1.11-0.9-2.02-2.02-2.02h-2.79c-1.11,0-2.02,0.9-2.02,2.02v24.46
			c0,1.11,0.9,2.02,2.02,2.02h3.84c1.11,0,2.02-0.9,2.02-2.02V27.39c0-4.02,2.09-6.51,5.46-6.51c0.85,0,1.63,0.17,2.28,0.39
			c1.11,0.38,2.31-0.25,2.61-1.39l0.81-3.09c0.24-0.9-0.27-1.83-1.15-2.12C206.53,14.36,205.21,14.06,203.56,14.06z"/>
		<path d="M232.93,15.78l-6.75,17.08l-6.75-17.08c-0.3-0.77-1.05-1.27-1.87-1.27h-4.34c-1.28,0-2.13,1.32-1.61,2.49l10.69,23.76
			l-1.84,4.05c-0.92,2.04-1.95,2.46-3.21,2.46c-0.7,0-1.58-0.23-2.34-0.49c-0.97-0.33-2.01,0.21-2.29,1.2L212,50.23
			c-0.27,0.97,0.22,2,1.15,2.39c1.06,0.45,2.61,0.91,4.43,0.91c4.52,0,7.5-2.23,9.65-7.25l12.73-29.31
			c0.51-1.16-0.35-2.47-1.62-2.47h-3.55C233.97,14.5,233.23,15.01,232.93,15.78z"/>
		<path d="M107.81,14.06c-6.52,0-11.44,4.98-11.44,11.59c0,2.37,0.54,4.75,1.06,7.05c1.02,4.44,1.99,6.82-3.35,6.82
			c-9.67,0-17.64-7.4-18.56-16.83c-0.1-1.03-0.97-1.81-2-1.81h-3.74c-1.18,0-2.11,1.01-2.01,2.19
			c1.12,13.54,12.49,24.22,26.31,24.22c0,0,0.01,0,0.01,0c15.3,0,25.15-12.59,25.15-21.63C119.24,19.26,114.11,14.06,107.81,14.06z
			 M105.63,35.82c-0.19-2.9-1.78-6.45-1.78-10.18c0-2.84,1.99-4.1,3.95-4.1c2.14,0,3.95,1.88,3.95,4.1
			C111.76,29.39,108.39,33.76,105.63,35.82z"/>
		<path class="st2" d="M105.63,35.82c-0.19-2.9-1.78-6.45-1.78-10.18c0-2.84,1.99-4.1,3.95-4.1c2.14,0,3.95,1.88,3.95,4.1
			C111.76,29.39,108.39,33.76,105.63,35.82z"/>
	</g>
</g>
</svg>
