<svg width="516" height="339" xmlns="http://www.w3.org/2000/svg" xmlns:xlink="http://www.w3.org/1999/xlink"><defs><path d="M.371.549S56.659 48.94 56.659 74.684c0 25.747-47.08 51.755-47.08 51.755L.371.549" id="a"/></defs><g fill="none" fill-rule="evenodd"><path d="M98.605 37.304c-7.794 0-15.606-.043-22.291-.174-6.184-.12-13.544-.924-16.441-6.389-2.14-4.037-.655-9.358 2.716-12.443 3.014-2.759 7.196-3.922 11.307-3.922.486 0 .972.016 1.454.048 4.559.301 8.936 1.849 13.206 3.472.554-8.007 7.528-15.075 15.527-15.737.378-.031.76-.047 1.143-.047 3.253 0 6.618 1.145 8.427 3.801 2.619 3.843 1.077 9.025-.546 13.382 4.15-.72 8.368-1.441 12.559-1.441 1.661 0 3.316.113 4.963.384 5.803.956 11.561 4.259 13.865 9.67 1.201 2.823.774 9.222-8.568 9.222-6.228 0-21.735.174-37.321.174" fill="#FAD275"/><path d="M352.799 126.548c-27.427 0-54.916-.153-78.44-.612-21.759-.426-47.657-3.253-57.85-22.482-7.53-14.206-2.305-32.93 9.555-43.787 10.606-9.706 25.322-13.799 39.788-13.799 1.712 0 3.42.057 5.118.169 16.043 1.06 31.44 6.506 46.469 12.218 1.948-28.174 26.489-53.048 54.634-55.377a49.226 49.226 0 014.022-.165c11.447 0 23.288 4.028 29.657 13.375 9.213 13.523 3.786 31.756-1.926 47.09 14.603-2.535 29.447-5.072 44.196-5.072 5.842 0 11.668.398 17.462 1.352 20.418 3.362 40.683 14.985 48.786 34.025 4.229 9.935 2.726 32.453-30.148 32.453-21.914 0-76.48.612-131.323.612" fill="#FBD887"/><path d="M313.281 111.604s56.288 48.391 56.288 74.136c0 25.746-47.08 51.753-47.08 51.753l-9.208-125.889" fill="#B8B7B3"/><path d="M325.279 232.154c4.407-2.719 11.592-7.433 18.731-13.328 14.645-12.096 22.387-23.537 22.387-33.086 0-6.772-4.731-19.995-27.268-44.534-8.329-9.069-16.733-17.063-22.111-21.997l8.261 112.945zm-15.718-127.931l5.788 4.976c.142.123 14.376 12.396 28.412 27.673 19.229 20.929 28.979 37.371 28.979 48.868 0 27.302-46.727 53.431-48.717 54.53l-4.336 2.395-10.126-138.442z" fill="#0A0B09"/><g transform="translate(312.91 111.055)"><mask id="b" fill="#fff"><use xlink:href="#a"/></mask><path d="M-1.12 12.635s48.574 40.061 45.57 87.134c-3.005 47.072 37.057-66.602 37.057-66.602L18.91-7.396-1.12 12.635" fill="#FFFFFE" mask="url(#b)"/></g><path d="M335.545 286.356c-17.954-2.133-30.785-18.425-28.652-36.379 2.133-17.954 18.425-30.785 36.379-28.651 17.953 2.132 30.785 18.424 28.652 36.378l-.801 6.743-20.444-2.43.8-6.742c.792-6.67-3.965-12.713-10.636-13.506-6.67-.792-12.713 3.967-13.506 10.637-.792 6.67 3.967 12.713 10.636 13.505l6.743.802-2.429 20.445-6.742-.802" fill="#0A0B09"/><path d="M336.347 279.614c-14.235-1.692-24.403-14.603-22.712-28.836 1.692-14.233 14.603-24.402 28.837-22.71 14.232 1.69 24.401 14.602 22.709 28.835l-6.959-.827c1.234-10.391-6.187-19.815-16.579-21.049-10.39-1.235-19.814 6.186-21.047 16.578-1.236 10.391 6.185 19.814 16.578 21.05l-.827 6.959" fill="#B8B7B3"/><path d="M325.279 232.154c4.407-2.719 11.592-7.433 18.731-13.328 14.645-12.096 22.387-23.537 22.387-33.086 0-6.772-4.731-19.995-27.268-44.534-8.329-9.069-16.733-17.063-22.111-21.997l8.261 112.945zm-15.718-127.931l5.788 4.976c.142.123 14.376 12.396 28.412 27.673 19.229 20.929 28.979 37.371 28.979 48.868 0 27.302-46.727 53.431-48.717 54.53l-4.336 2.395-10.126-138.442z" fill="#0A0B09"/><path d="M252.228 40.434s24.569-16.507 6.732-32.452c-15.49-13.848-28.676 6.628-28.676 6.628s-4.055-7.354-12.799-6.597c-11.33.98-12.252 13.021-12.252 13.021s-8.242-5.84-11.483.963c-3.241 6.804 9.9 15.825 9.9 15.825l48.578 2.612" fill="#D8252D"/><path d="M246.421 6.441c-7.628 1.018-13.415 9.802-13.47 9.886a3.17 3.17 0 01-2.769 1.463 3.151 3.151 0 01-2.663-1.628c-.13-.227-3.254-5.553-9.76-4.989-3.54.306-6.077 1.951-7.754 5.031-1.374 2.523-1.609 5.062-1.61 5.072a3.178 3.178 0 01-4.986 2.352c-1.052-.733-3.753-2.106-5.383-1.676-.395.105-.913.359-1.413 1.41-1.279 2.684 3.709 8.106 8.125 11.342l46.539 2.503c2.595-1.962 10.476-8.506 10.98-15.958.259-3.849-1.51-7.415-5.41-10.902-3.002-2.684-5.959-4.001-8.999-4.001-.473 0-.95.031-1.427.095zm5.637 37.16l-48.579-2.611a3.177 3.177 0 01-1.624-.553c-1.574-1.08-15.252-10.814-10.968-19.803 1.517-3.186 3.854-4.381 5.546-4.822 2.31-.602 4.67-.146 6.584.549 1.7-4.992 5.84-10.786 14.195-11.509 6.2-.534 10.475 2.199 13.011 4.66 3.005-3.452 8.427-8.419 15.325-9.354 5.428-.736 10.652 1.102 15.526 5.459 5.388 4.816 7.914 10.228 7.51 16.084-.828 11.99-14.025 20.989-14.586 21.366a3.178 3.178 0 01-1.77.539l-.17-.005z" fill="#0A0B09"/><path d="M240.231 5.928s13.036 10.128 11.229 31.482c-1.057 12.479 13.22-12.305 13.22-12.305l-3.308-15.348-14.366-5.908-6.775 2.079" fill="#B1252B"/><path d="M246.421 6.441c-7.628 1.018-13.415 9.802-13.47 9.886a3.17 3.17 0 01-2.769 1.463 3.151 3.151 0 01-2.663-1.628c-.13-.227-3.254-5.553-9.76-4.989-3.54.306-6.077 1.951-7.754 5.031-1.374 2.523-1.609 5.062-1.61 5.072a3.178 3.178 0 01-4.986 2.352c-1.052-.733-3.753-2.106-5.383-1.676-.395.105-.913.359-1.413 1.41-1.279 2.684 3.709 8.106 8.125 11.342l46.539 2.503c2.595-1.962 10.476-8.506 10.98-15.958.259-3.849-1.51-7.415-5.41-10.902-3.002-2.684-5.959-4.001-8.999-4.001-.473 0-.95.031-1.427.095zm5.637 37.16l-48.579-2.611a3.177 3.177 0 01-1.624-.553c-1.574-1.08-15.252-10.814-10.968-19.803 1.517-3.186 3.854-4.381 5.546-4.822 2.31-.602 4.67-.146 6.584.549 1.7-4.992 5.84-10.786 14.195-11.509 6.2-.534 10.475 2.199 13.011 4.66 3.005-3.452 8.427-8.419 15.325-9.354 5.428-.736 10.652 1.102 15.526 5.459 5.388 4.816 7.914 10.228 7.51 16.084-.828 11.99-14.025 20.989-14.586 21.366a3.178 3.178 0 01-1.77.539l-.17-.005z" fill="#0A0B09"/><path d="M201.187 90.137l49.723 3.046 3.209-52.386a50.365 50.365 0 00-48.949-3.409l-.774.363-3.209 52.386" fill="#D8252D"/><path d="M229.867 35.892a47.33 47.33 0 00-22.42 3.942l-2.899 47.331 43.39 2.659 2.9-47.339a47.332 47.332 0 00-20.971-6.593zm-32.039 57.217l3.519-57.429 2.474-1.163a53.675 53.675 0 0126.486-4.953 53.663 53.663 0 0125.545 8.577l1.545 1.009-3.515 57.393-56.054-3.434zM125.157 105.523c-9.208 7.105-20.154 12.987-31.653 15.231-6.406 1.251-14.87 1.593-20.865-1.468l-21.54-10.998-15.754 25.957 5.187 4.533c32.053 28.006 71.993 44.711 114.533 46.906l12.621.651-33.84-87.517-8.689 6.705" fill="#0A0B09"/><path d="M130.162 112.009c-24.495 18.903-48.648 20.988-61.249 14.573l-14.759-7.536-8.232 13.562c38.931 34.016 80.967 43.418 109.565 44.894l-25.325-65.493" fill="#B8B7B3"/><path d="M129.843 112.594c-22.582 15.247-49.261 19.929-60.93 13.988l-5.339-2.726-.744 2.183c21.564 16.516 47.142 10.022 66.086-2.615l.927-10.83" fill="#FFFFFE"/><path d="M.541 114.742c1.442 18.022 17.227 31.471 35.25 30.029 18.023-1.441 31.472-17.227 30.03-35.25-1.441-18.023-17.227-31.47-35.25-30.029l-6.768.541 1.641 20.522 6.768-.541c6.696-.535 12.551 4.452 13.087 11.148.535 6.696-4.453 12.552-11.149 13.087-6.695.535-12.551-4.452-13.087-11.148l-.541-6.769L0 107.973l.541 6.769" fill="#0A0B09"/><path d="M7.309 114.201c1.143 14.287 13.654 24.945 27.941 23.802 14.287-1.143 24.945-13.653 23.803-27.941C57.91 95.775 45.4 85.117 31.112 86.26l.559 6.986c10.431-.835 19.561 6.943 20.395 17.375.835 10.432-6.944 19.561-17.375 20.396-10.431.834-19.562-6.944-20.396-17.375l-6.986.559" fill="#B8B7B3"/><path d="M221.091 319.974c78.61 0 142.338 4.103 142.338 9.168 0 5.062-63.728 9.168-142.338 9.168-78.612 0-142.34-4.106-142.34-9.168 0-5.065 63.728-9.168 142.34-9.168" fill="#0A0B09"/><path d="M306.271 302.887l1.365-.04-.106-6.342h-3.135l-3.923 6.566 5.799-.184" fill="#B8B7B3"/><path d="M302.604 293.333l-1.847 3.078-.025.04-5.987 9.974 11.627-.368a3789.305 3789.305 0 011.371-.041l-.213-12.683h-4.926zm3.591 6.343h1.335c-.451.016-.907.026-1.359.04l.024-.04z" fill="#0A0B09"/><path d="M207.183 326.743c-2.018-5.821-1.998-10.814.055-13.699 1.077-1.514 2.656-2.314 4.565-2.314 7.088 0 12.761 9.189 15.033 17.727l.628 2.361 63.907-.115 22.554-41.676-5.518.174c-1.606.051-3.338.11-5.19.172-10.218.345-24.213.818-40.767.818-52.264 0-99.938-4.892-141.7-14.54l-6.32-1.461 2.728 5.885c6.45 13.911 24.023 39.982 33.575 49.815l.932.959 56.981.114-1.463-4.22" fill="#B8B7B3"/><path d="M108.824 269.64l5.457 11.769c6.558 14.144 24.445 40.674 34.178 50.692l1.863 1.917 2.674.006 51.179.102 8.931.018-2.925-8.44c-1.947-5.614-1.462-9.271-.359-10.821.484-.679 1.094-.981 1.981-.981 3.167 0 8.967 4.092 11.967 15.37l1.256 4.721 4.886-.008 59.579-.107 3.773-.007 26.077-48.19-11.035.351c-1.607.05-3.341.109-5.195.171-10.196.345-24.161.816-40.662.816-22.992 0-44.323-.894-65.211-2.734-26.828-2.362-52.322-6.306-75.774-11.725l-12.64-2.92zm11.212 9.101c52.554 12.141 104.363 14.622 142.413 14.622 19.594 0 35.531-.658 46.059-.992l-19.029 35.163-59.579.108c-3.69-13.878-11.691-20.084-18.097-20.084-6.984 0-12.071 7.374-7.616 20.225l-51.178-.103c-9.583-9.863-26.911-35.865-32.973-48.939zM230.617 61.118c28.187 2.152 53.555 14.972 73.2 35.093l22.141 22.676-30.554-8.418c-8.346-2.299-16.832-4.106-25.35-5.635-14.016-2.515-28.178-4.23-42.374-5.316-14.191-1.086-28.443-1.544-42.672-1.19-8.65.215-17.307.711-25.903 1.715l-31.479 3.674 25.332-19.045c22.378-16.825 49.6-25.698 77.659-23.554" fill="#0A0B09"/><path d="M229.964 69.668c26.199 2.001 49.596 13.974 67.717 32.534-8.608-2.372-17.404-4.246-26.114-5.809-14.284-2.563-28.767-4.319-43.233-5.426-14.46-1.106-29.038-1.572-43.539-1.211-8.843.219-17.818.734-26.685 1.769 20.727-15.583 45.662-23.857 71.854-21.857" fill="#B8B7B3"/><path d="M229.84 69.882a100.955 100.955 0 00-24.054 1.062c29.359-1.272 54.986 5.771 72.7 26.939 6.388 1.267 12.782 2.729 19.079 4.456-18.134-18.534-41.534-30.479-67.725-32.457" fill="#FFFFFE"/><path d="M233.173 77.352c4.293.318 7.512 4.107 7.189 8.464l.001-.001-.598 8.068-15.549-1.153.597-8.067c.323-4.356 4.066-7.629 8.36-7.311zm-25.902 6.011l-.598 8.067-15.55-1.152.599-8.067c.322-4.356 4.065-7.63 8.358-7.312 4.294.319 7.514 4.108 7.191 8.464z" fill="#0A0B09"/><path d="M309.121 105.707l.012.003.886.305c2.317.804 1.332 2.883 4.598 4.921 21.753 29.501 31.089 66.888 28.291 103.517-1.977 25.879-9.929 51.124-23.753 73.039-1.25 1.981-3.151 3.151-5.459 3.361-33.597 3.047-67.096 3.771-100.737 1.204-33.626-2.565-66.611-8.359-99.34-16.473-2.249-.557-3.95-2.003-4.885-4.151-10.34-23.762-14.368-49.926-12.392-75.809 2.889-37.823 18.686-74.478 46.256-100.514 1.074-1.014 2.249-1.607 3.691-1.863 12.628-2.236 25.705-3.173 38.506-3.491 14.501-.361 29.079.105 43.539 1.211 14.466 1.107 28.949 2.863 43.233 5.426 12.607 2.263 25.393 5.177 37.535 9.308l.019.006" fill="#0A0B09"/><path d="M147.518 100.472c44.114-7.815 118.19-2.062 160.148 12.483l-.874-.3c20.541 26.394 31.871 62.448 28.907 101.249-1.987 26.023-10.143 49.845-22.632 69.644-70.16 6.364-129.34 1.861-197.717-15.088-9.341-21.468-13.787-46.259-11.799-72.285 2.964-38.812 19.645-72.733 43.967-95.703" fill="#B8B7B3"/><path d="M306.909 112.536c-42.437-14.356-116.537-19.8-160.204-11.726l.909-.166a129.798 129.798 0 00-5.635 5.687c95.812-7.167 189.367 2.364 179.9 114.418-1.976 23.397-8.497 45.056-18.905 63.594 3.472-.27 6.968-.567 10.493-.892 12.462-19.821 20.582-43.661 22.528-69.691 2.902-38.816-8.491-74.86-29.086-101.224" fill="#FFFFFE"/><path d="M297.077 160.965c2.267 12.057 3.554 24.326 2.608 36.607-.943 12.262-4.074 24.175-8.13 35.735-1.803 5.14-6.187 8.691-11.524 9.34-21.053 2.556-42.312 3.84-63.48 2.215-21.151-1.624-41.953-6.108-62.357-11.824-5.173-1.45-8.963-5.619-9.971-10.966-2.27-12.051-3.556-24.315-2.611-36.589.944-12.268 4.076-24.188 8.13-35.754 1.802-5.14 6.185-8.695 11.522-9.345 21.041-2.559 42.287-3.849 63.441-2.234 21.167 1.617 41.978 6.128 62.397 11.843 5.176 1.449 8.969 5.622 9.975 10.972" fill="#0A0B09"/><path d="M289.974 162.355c2.146 11.407 3.397 23.04 2.503 34.662-.892 11.606-3.894 22.905-7.733 33.845-.881 2.508-2.951 4.186-5.557 4.504-20.583 2.499-41.38 3.771-62.075 2.182-20.681-1.587-41.027-5.99-60.978-11.58-2.526-.708-4.317-2.677-4.809-5.289-2.147-11.398-3.398-23.027-2.505-34.642.894-11.615 3.897-22.915 7.734-33.864.88-2.511 2.95-4.189 5.556-4.507 20.571-2.502 41.353-3.782 62.037-2.202 20.695 1.58 41.054 6.011 61.018 11.599 2.527.708 4.318 2.679 4.809 5.292" fill="#FFFFFE"/><path d="M310.572 192.892c3.5.267 6.115 3.36 5.845 6.91-.271 3.551-3.327 6.213-6.825 5.945-3.5-.267-6.118-3.361-5.846-6.912.27-3.551 3.327-6.211 6.826-5.943M131.344 179.203c3.5.268 6.116 3.363 5.844 6.913-.27 3.55-3.327 6.21-6.826 5.943-3.499-.267-6.116-3.361-5.845-6.91.271-3.551 3.328-6.212 6.827-5.946M168.396 184.374c1.016.072 1.842.471 2.39 1.16.439.506.709 1.164.805 1.957l-6.794-.476c.44-1.758 1.807-2.767 3.599-2.641zm.263-2.963c-4.278-.299-7.602 2.6-7.902 6.895-.301 4.294 2.702 7.637 7.14 7.948 1.592.112 4.42-.161 6.224-1.869a.88.88 0 00.048-1.212l-.738-.847a1.013 1.013 0 00-1.34-.165c-1.402.954-2.589 1.141-3.647 1.067-1.846-.13-3.733-1.321-3.859-3.693l9.691.68a1.01 1.01 0 001.076-.891c.227-2.084-.393-4.133-1.672-5.575-1.186-1.363-2.968-2.193-5.021-2.338zM185.656 182.603c-1.483-.104-2.816.273-3.875 1.093l.416-5.933a.882.882 0 00-.999-.937l-2.075.278a1.007 1.007 0 00-.872.93l-1.226 17.486c-.039.556.38 1.038.937 1.077l1.893.133a1.01 1.01 0 001.078-.937l.499-7.124c.124-1.748 1.368-2.84 3.099-2.718 1.691.118 2.702 1.341 2.578 3.116l-.499 7.124a1.01 1.01 0 00.937 1.078l1.921.135a1.01 1.01 0 001.078-.937l.518-7.401c.254-3.621-1.919-6.219-5.408-6.463M229.07 185.645c-1.806-.126-3.334.446-4.444 1.658l.052-.73a1.011 1.011 0 00-.937-1.079l-1.395-.097a1.01 1.01 0 00-1.079.936l-.856 12.227c-.039.556.38 1.039.937 1.077l1.921.135a1.01 1.01 0 001.078-.937l.5-7.124c.122-1.747 1.367-2.84 3.097-2.718 1.691.118 2.702 1.341 2.578 3.116l-.499 7.124a1.01 1.01 0 00.937 1.078l1.922.135a1.009 1.009 0 001.077-.937l.519-7.401c.253-3.621-1.92-6.219-5.408-6.463M243.777 196.948c-2.111-.149-3.483-1.715-3.337-3.81.149-2.111 1.715-3.483 3.81-3.337 2.112.149 3.483 1.726 3.335 3.838-.147 2.095-1.713 3.455-3.808 3.309zm5.404-9.671a1.01 1.01 0 00-1.077.937l-.023.334c-1.132-1.108-2.606-1.754-4.28-1.871-3.878-.271-7.002 2.388-7.269 6.187-.265 3.783 2.447 6.839 6.31 7.111 1.498.104 2.926-.25 4.148-1.026l-.099 1.406c-.17 2.439-2.212 3.17-4.067 3.04-2.064-.145-3.538-1.375-4.327-2.236a1.01 1.01 0 00-1.464-.037l-.761.767a1.01 1.01 0 00-.082 1.33c.828 1.072 2.772 2.941 6.395 3.195 4.639.326 7.708-2.121 8.007-6.384l.811-11.585a1.009 1.009 0 00-.936-1.077l-1.286-.091zM261.366 187.909c-1.422-.1-2.699.457-3.717 1.613l.045-.636a1.01 1.01 0 00-.937-1.078l-1.395-.098a1.01 1.01 0 00-1.078.937l-.856 12.226a1.008 1.008 0 00.936 1.078l1.921.134a1.01 1.01 0 001.078-.936l.476-6.792c.14-2.007 1.273-3.18 2.956-3.063.426.031.809.143 1.128.277a1.01 1.01 0 001.352-.604l.515-1.517a.886.886 0 00-.501-1.102 6.123 6.123 0 00-1.923-.439M275.981 189.795l-3.973 8.301-2.777-8.774a1.01 1.01 0 00-.892-.703l-2.168-.152a.884.884 0 00-.891 1.188l4.513 12.249-1.061 1.962c-.529.986-1.057 1.159-1.688 1.115-.352-.025-.781-.171-1.153-.327a.885.885 0 00-1.184.517l-.391 1.111c-.168.476.04 1.006.491 1.234a5.775 5.775 0 002.184.609c2.26.159 3.825-.854 5.078-3.284l7.391-14.204a.884.884 0 00-.722-1.289l-1.775-.124a1.01 1.01 0 00-.982.571M211.698 195.358c.006-1.456-.664-3.286-.534-5.149.1-1.417 1.137-1.981 2.12-1.912 1.071.075 1.911 1.077 1.833 2.19-.131 1.868-1.968 3.936-3.419 4.871zm1.849-10.801c-3.259-.229-5.891 2.089-6.122 5.391-.083 1.185.103 2.391.284 3.558.355 2.257.756 3.48-1.913 3.292-4.832-.339-8.558-4.315-8.685-9.061a1.007 1.007 0 00-.936-.977l-1.871-.131a1.013 1.013 0 00-1.082 1.023c.083 6.805 5.394 12.541 12.302 13.024l.006.001c7.65.536 13.011-5.413 13.327-9.929.224-3.193-2.159-5.97-5.31-6.191z" fill="#0A0B09"/><path d="M211.698 195.358c.006-1.456-.664-3.286-.534-5.149.1-1.417 1.137-1.981 2.12-1.912 1.071.075 1.911 1.077 1.833 2.19-.131 1.868-1.968 3.936-3.419 4.871" fill="#D8252D"/></g></svg>